# xmcd
#
# Track frame offsets:
#      150
#      13271
#      33629
#      50955
#      68379
#      89797
#      109807
#      124915
#      143728
#      164412
#      181250
#      199796
#      214982
#      233170
#      248294
#      264658
#      282622
#      298216
#      313120
# 
# Disc length: 4422 seconds
#
# Revision: 34
# Processed by: cddbd v1.5.2PL0 Copyright (c) Steve Scherf et al.
#
# Submitted via: FreeRIP 1.21
#
DISCID=2e114413
DTITLE=Shania Twain - Up! (Red Disc) [CD1)
DYEAR=2002
DGENRE=Country
TTITLE0=Up! (Pop Version)
TTITLE1=I'm Gonna Getcha Good! (Pop Version)
TTITLE2=She's Not Just A Pretty Face (Pop Version)
TTITLE3=Juanita (Pop Version)
TTITLE4=Forever And For Always (Pop Version)
TTITLE5=Ain't No Particular Way (Pop Version)
TTITLE6=It Only Hurts When I'm Breathing (Pop Version)
TTITLE7=Nah! (Pop Version)
TTITLE8=(Wanna Get To Know You) That Good! (Pop Version)
TTITLE9=C'est La Vie (Pop Version)
TTITLE10=I'm Jealous (Pop Version)
TTITLE11=Ka-Ching! (Pop Version)
TTITLE12=Thank You Baby! (For Makin' Someday Come So Soon) (Pop Version)
TTITLE13=Waiter! Bring Me Water! (Pop Version)
TTITLE14=What A Way To Wanna Be! (Pop Version)
TTITLE15=I Ain't Goin' Down (Pop Version)
TTITLE16=I'm Not In The Mood (To Say No)! (Pop Version)
TTITLE17=In My Car (I'll Be The Driver) (Pop Version)
TTITLE18=When You Kiss Me (Pop Version)
EXTD=
EXTT0=
EXTT1=
EXTT2=
EXTT3=
EXTT4=
EXTT5=
EXTT6=
EXTT7=
EXTT8=
EXTT9=
EXTT10=
EXTT11=
EXTT12=
EXTT13=
EXTT14=
EXTT15=
EXTT16=
EXTT17=
EXTT18=
PLAYORDER=
